<?xml version="1.0" encoding="UTF-8" standalone="no"?>
<svg
   xmlns:dc="http://purl.org/dc/elements/1.1/"
   xmlns:cc="http://creativecommons.org/ns#"
   xmlns:rdf="http://www.w3.org/1999/02/22-rdf-syntax-ns#"
   xmlns:svg="http://www.w3.org/2000/svg"
   xmlns="http://www.w3.org/2000/svg"
   xmlns:xlink="http://www.w3.org/1999/xlink"
   xmlns:sodipodi="http://sodipodi.sourceforge.net/DTD/sodipodi-0.dtd"
   xmlns:inkscape="http://www.inkscape.org/namespaces/inkscape"
   version="1.1"
   preserveAspectRatio="xMidYMid meet"
   viewBox="31.133249999999975 -2.2675277777777865 195.73350000000005 263.49025000000006"
   width="191.73"
   height="259.49"
   id="svg95"
   sodipodi:docname="sensor.svg"
   inkscape:version="0.92.4 (5da689c313, 2019-01-14)">
  <metadata
     id="metadata99">
    <rdf:RDF>
      <cc:Work
         rdf:about="">
        <dc:format>image/svg+xml</dc:format>
        <dc:type
           rdf:resource="http://purl.org/dc/dcmitype/StillImage" />
        <dc:title></dc:title>
      </cc:Work>
    </rdf:RDF>
  </metadata>
  <sodipodi:namedview
     pagecolor="#ffffff"
     bordercolor="#666666"
     borderopacity="1"
     objecttolerance="10"
     gridtolerance="10"
     guidetolerance="10"
     inkscape:pageopacity="0"
     inkscape:pageshadow="2"
     inkscape:window-width="759"
     inkscape:window-height="480"
     id="namedview97"
     showgrid="false"
     inkscape:zoom="1.2062122"
     inkscape:cx="95.864998"
     inkscape:cy="129.745"
     inkscape:window-x="0"
     inkscape:window-y="0"
     inkscape:window-maximized="1"
     inkscape:current-layer="svg95" />
  <defs
     id="defs67">
    <path
       d="M32.13 94.59C32.13 122.84 44.42 148.27 63.94 165.86C65.07 158.26 68.92 151.48 74.84 146.61C74.96 146.51 75.06 146.41 75.18 146.32C75.18 146.32 75.18 146.32 75.18 146.32C75.2 146.3 75.22 146.28 75.24 146.26C62.18 132.93 54.12 114.68 54.12 94.59C54.12 53.87 87.28 20.72 128.01 20.72C168.75 20.72 201.88 53.87 201.88 94.59C201.88 106.09 199.22 116.99 194.48 126.7C194.14 127.37 193.82 128.06 193.46 128.73C193.46 128.73 193.47 128.73 193.47 128.74C193.46 128.76 193.45 128.78 193.44 128.81C199.7 130.69 205.26 134.69 209.48 140.04C210.04 140.76 210.57 141.5 211.07 142.27C211.08 142.26 211.08 142.24 211.09 142.23C211.1 142.26 211.12 142.28 211.14 142.3C219.22 128.26 223.87 111.93 223.87 94.59C223.87 41.72 180.87 -1.27 128.01 -1.27C75.15 -1.27 32.13 41.72 32.13 94.59Z"
       id="caMZkgzks" />
    <path
       d="M164.63 123.07C165.84 122.9 167.02 122.85 168.26 122.85C169.96 122.85 171.66 122.98 173.32 123.29C178.18 115.29 180.98 105.91 180.98 95.88C180.98 66.66 157.23 42.88 128.01 42.88C98.79 42.88 75.02 66.66 75.02 95.88C75.02 113.64 83.81 129.42 97.31 139.04C97.31 137.16 97.31 122.16 97.31 120.29C91.95 113.58 88.76 105.12 88.76 95.88C88.76 74.19 106.35 56.63 128.01 56.63C149.68 56.63 167.24 74.19 167.24 95.88C167.24 104.95 164.16 113.28 158.99 119.93C158.99 119.98 158.99 120.2 158.99 120.59C161.56 121.55 163.44 122.37 164.63 123.07Z"
       id="aDuhOPMBd" />
    <path
       d="M129.03 82.36L129.85 82.44L130.68 82.56L131.5 82.71L132.32 82.89L133.13 83.1L133.93 83.34L134.72 83.62L135.51 83.93L136.29 84.27L137.05 84.64L137.81 85.05L138.55 85.48L139.27 85.95L139.98 86.45L140.68 86.99L141.35 87.55L142.01 88.14L142.65 88.77L143.26 89.43L143.86 90.12L144.43 90.84L144.98 91.59L145.5 92.37L146 93.19L146.47 94.03L146.92 94.9L147.33 95.81L147.71 96.75L148.06 97.71L148.38 98.71L148.67 99.74L148.92 100.8L149.13 101.89L149.31 103L149.45 104.15L149.55 105.33L149.62 106.54L149.64 107.78L149.64 129.71L149.7 129.71L149.72 129.71L149.74 129.71L149.77 129.71L149.79 129.72L149.8 129.72L149.82 129.72L149.83 129.72L149.86 129.72L149.88 129.72L149.89 129.72L149.91 129.72L149.92 129.72L149.95 129.72L149.96 129.72L149.97 129.73L149.98 129.73L149.99 129.73L150 129.73L150.01 129.73L150.02 129.73L150.03 129.73L150.04 129.74L150.05 129.74L150.07 129.74L150.08 129.74L150.39 129.76L150.71 129.78L151.03 129.81L151.35 129.84L151.66 129.88L151.98 129.92L152.29 129.97L152.61 130.02L152.92 130.08L153.23 130.14L153.54 130.2L153.85 130.27L154.15 130.34L154.46 130.42L154.76 130.5L155.07 130.59L155.37 130.68L155.67 130.78L155.96 130.88L156.26 130.98L156.56 131.09L156.85 131.21L157.14 131.33L157.43 131.45L157.72 131.58L158.01 131.71L158.29 131.84L158.57 131.98L158.85 132.13L159.13 132.28L159.41 132.43L159.68 132.59L159.95 132.75L160.22 132.91L160.49 133.09L160.75 133.26L161.01 133.44L161.27 133.62L161.53 133.81L161.79 134L161.9 133.97L162.01 133.94L162.12 133.91L162.23 133.88L162.35 133.86L162.46 133.83L162.57 133.8L162.68 133.78L162.8 133.75L162.91 133.73L163.02 133.71L163.14 133.68L163.25 133.66L163.36 133.64L163.48 133.62L163.59 133.6L163.71 133.58L163.82 133.56L163.94 133.54L164.05 133.53L164.17 133.51L164.29 133.5L164.4 133.48L164.52 133.47L164.63 133.45L164.75 133.44L164.87 133.43L164.98 133.42L165.1 133.41L165.22 133.4L165.34 133.39L165.45 133.38L165.57 133.38L165.69 133.37L165.81 133.36L165.93 133.36L166.05 133.35L166.16 133.35L166.28 133.35L166.4 133.34L166.42 133.34L166.44 133.34L166.46 133.34L166.48 133.34L166.5 133.33L166.51 133.33L166.53 133.33L166.55 133.33L166.57 133.33L166.59 133.33L166.61 133.33L166.63 133.33L166.65 133.32L166.66 133.32L166.68 133.32L166.7 133.32L166.72 133.32L166.74 133.32L166.76 133.32L166.78 133.32L166.79 133.32L166.81 133.32L166.83 133.32L166.85 133.32L166.89 133.32L166.91 133.32L166.94 133.32L166.98 133.32L167 133.32L167.03 133.32L167.07 133.32L167.15 133.32L167.56 133.32L167.97 133.33L168.39 133.35L168.8 133.38L169.21 133.42L169.62 133.46L170.03 133.51L170.44 133.58L170.85 133.64L171.25 133.72L171.66 133.8L172.06 133.9L172.46 133.99L172.86 134.1L173.25 134.22L173.65 134.34L174.04 134.47L174.43 134.6L174.82 134.75L175.21 134.9L175.59 135.06L175.97 135.22L176.35 135.4L176.72 135.58L177.1 135.77L177.46 135.96L177.83 136.16L178.19 136.37L178.55 136.58L178.91 136.81L179.26 137.04L179.6 137.27L179.95 137.51L180.29 137.76L180.62 138.02L180.96 138.28L181.28 138.55L181.61 138.82L181.92 139.1L182.24 139.39L182.28 139.39L182.33 139.38L182.38 139.38L182.43 139.37L182.47 139.37L182.52 139.37L182.57 139.36L182.62 139.36L182.66 139.36L182.71 139.35L182.76 139.35L182.81 139.35L182.85 139.35L182.9 139.34L182.95 139.34L183 139.34L183.04 139.34L183.09 139.33L183.14 139.33L183.18 139.33L183.23 139.33L183.28 139.32L183.33 139.32L183.37 139.32L183.42 139.32L183.47 139.32L183.52 139.32L183.56 139.32L183.61 139.31L183.66 139.31L183.71 139.31L183.75 139.31L183.8 139.31L183.85 139.31L183.9 139.31L183.94 139.31L183.99 139.31L184.04 139.31L184.09 139.31L184.13 139.31L184.23 139.31L184.33 139.31L184.42 139.31L184.52 139.31L184.62 139.31L184.71 139.32L184.81 139.32L184.91 139.32L185 139.33L185.1 139.33L185.19 139.33L185.29 139.34L185.38 139.34L185.48 139.35L185.58 139.36L185.67 139.36L185.77 139.37L185.86 139.38L185.96 139.39L186.05 139.39L186.15 139.4L186.24 139.41L186.33 139.42L186.43 139.43L186.52 139.44L186.62 139.45L186.71 139.47L186.81 139.48L186.9 139.49L186.99 139.5L187.09 139.52L187.18 139.53L187.28 139.55L187.37 139.56L187.46 139.58L187.56 139.59L187.65 139.61L187.74 139.63L187.83 139.65L187.93 139.67L188.47 139.78L189 139.9L189.54 140.04L190.07 140.19L190.59 140.36L191.11 140.54L191.63 140.73L192.14 140.94L192.64 141.16L193.14 141.4L193.64 141.64L194.13 141.9L194.61 142.17L195.09 142.46L195.57 142.75L196.04 143.06L196.5 143.38L196.95 143.71L197.4 144.05L197.84 144.4L198.28 144.77L198.71 145.14L199.13 145.53L199.54 145.92L199.95 146.33L200.35 146.74L200.74 147.17L201.13 147.6L201.51 148.04L201.87 148.5L202.23 148.96L202.59 149.43L202.93 149.91L203.26 150.4L203.59 150.89L203.91 151.4L204.21 151.91L204.51 152.43L204.8 152.96L205.08 153.49L205.24 153.81L205.39 154.13L205.55 154.45L205.7 154.77L205.84 155.1L205.98 155.43L206.12 155.76L206.25 156.09L206.39 156.43L206.51 156.76L206.64 157.1L206.76 157.44L206.87 157.79L206.98 158.13L207.09 158.48L207.2 158.83L207.3 159.18L207.39 159.53L207.49 159.89L207.58 160.24L207.66 160.6L207.74 160.96L207.82 161.32L207.89 161.69L207.96 162.05L208.02 162.42L208.08 162.78L208.14 163.15L208.19 163.52L208.24 163.89L208.28 164.27L208.32 164.64L208.35 165.02L208.38 165.39L208.4 165.77L208.43 166.15L208.44 166.53L208.45 166.91L208.46 167.29L208.46 167.68L208.46 187.52L208.46 188.18L208.46 188.86L208.46 189.56L208.46 190.27L208.46 191.01L208.45 191.76L208.45 192.54L208.44 193.32L208.44 194.13L208.43 194.94L208.41 195.78L208.4 196.62L208.38 197.48L208.36 198.34L208.34 199.22L208.32 200.11L208.29 201.01L208.25 201.91L208.22 202.82L208.18 203.74L208.13 204.66L208.08 205.59L208.03 206.52L207.97 207.45L207.91 208.39L207.84 209.32L207.76 210.26L207.68 211.2L207.59 212.13L207.5 213.06L207.4 213.99L207.29 214.92L207.18 215.84L207.06 216.75L206.93 217.66L206.8 218.56L206.66 219.46L206.51 220.34L206.35 221.21L206.18 222.08L205.97 223.1L205.74 224.11L205.49 225.11L205.22 226.09L204.94 227.06L204.63 228.02L204.31 228.96L203.97 229.89L203.61 230.81L203.24 231.72L202.85 232.61L202.44 233.49L202.01 234.37L201.57 235.23L201.1 236.08L200.63 236.92L200.13 237.75L199.62 238.57L199.09 239.38L198.55 240.18L197.99 240.97L197.41 241.76L196.82 242.53L196.21 243.3L195.59 244.06L194.95 244.82L194.3 245.56L193.63 246.3L192.94 247.04L192.25 247.76L191.53 248.48L190.8 249.2L190.06 249.91L189.3 250.61L188.53 251.32L187.75 252.01L186.95 252.7L186.13 253.39L185.31 254.08L184.46 254.76L182.65 256.22L182.53 256.31L182.4 256.41L182.28 256.5L182.15 256.59L182.02 256.68L181.89 256.77L181.76 256.85L181.63 256.93L181.5 257.01L181.36 257.09L181.23 257.16L181.09 257.23L180.95 257.3L180.81 257.37L180.67 257.43L180.53 257.49L180.39 257.55L180.25 257.61L180.1 257.66L179.96 257.71L179.81 257.76L179.67 257.81L179.52 257.85L179.37 257.9L179.23 257.94L179.08 257.97L178.93 258.01L178.78 258.04L178.63 258.07L178.48 258.09L178.33 258.12L178.18 258.14L178.03 258.16L177.87 258.18L177.72 258.19L177.57 258.2L177.42 258.21L177.27 258.22L177.11 258.22L176.96 258.22L118.57 258.22L118.27 258.22L117.97 258.2L117.68 258.18L117.38 258.14L117.09 258.1L116.8 258.05L116.52 257.99L116.23 257.91L115.95 257.83L115.68 257.75L115.4 257.65L115.13 257.54L114.87 257.43L114.61 257.31L114.35 257.17L114.1 257.04L113.85 256.89L113.61 256.74L113.37 256.57L113.13 256.41L112.91 256.23L112.68 256.05L112.47 255.86L112.26 255.66L112.05 255.45L111.86 255.24L111.67 255.03L111.48 254.8L111.3 254.57L111.13 254.34L110.97 254.1L110.81 253.85L110.67 253.6L110.53 253.34L110.39 253.08L110.27 252.81L110.15 252.53L110.05 252.25L109.95 251.97L109.86 251.68L108.46 246.84L108.09 245.61L107.71 244.38L107.32 243.15L106.92 241.93L106.5 240.72L106.07 239.51L105.63 238.31L105.18 237.11L104.72 235.92L104.24 234.74L103.75 233.56L103.25 232.39L102.74 231.22L102.22 230.06L101.68 228.91L101.13 227.76L100.57 226.62L100 225.48L99.41 224.35L98.82 223.23L98.21 222.11L97.59 221L96.96 219.9L96.32 218.8L95.66 217.71L95 216.62L94.32 215.54L93.63 214.47L92.93 213.41L92.22 212.35L91.49 211.3L90.76 210.25L90.01 209.22L89.25 208.19L88.48 207.16L87.7 206.15L86.91 205.14L86.1 204.13L85.29 203.14L84.46 202.15L79.92 196.76L79.5 196.2L79.08 195.64L78.67 195.09L78.27 194.53L77.89 193.98L77.51 193.43L77.14 192.88L76.79 192.34L76.44 191.79L76.1 191.25L75.78 190.71L75.46 190.17L75.16 189.63L74.86 189.1L74.58 188.57L74.3 188.03L74.03 187.5L73.78 186.97L73.53 186.45L73.3 185.92L73.07 185.4L72.86 184.88L72.66 184.35L72.46 183.84L72.28 183.32L72.1 182.8L71.94 182.29L71.78 181.77L71.64 181.26L71.51 180.75L71.38 180.24L71.27 179.73L71.16 179.22L71.07 178.72L70.99 178.21L70.91 177.71L70.85 177.2L70.79 176.7L70.75 176.2L70.72 175.7L70.71 175.58L70.7 175.45L70.7 175.33L70.7 175.2L70.69 175.08L70.69 174.95L70.69 174.83L70.68 174.7L70.68 174.57L70.68 174.45L70.68 174.33L70.68 174.2L70.68 174.08L70.68 173.95L70.68 173.83L70.69 173.7L70.69 173.58L70.69 173.45L70.7 173.33L70.7 173.2L70.71 173.08L70.71 172.96L70.72 172.83L70.73 172.71L70.74 172.58L70.75 172.46L70.75 172.34L70.76 172.21L70.77 172.09L70.79 171.96L70.8 171.84L70.81 171.72L70.82 171.59L70.84 171.47L70.85 171.35L70.87 171.22L70.88 171.1L70.9 170.97L70.92 170.85L70.94 170.73L71.01 170.27L71.09 169.81L71.18 169.35L71.28 168.9L71.39 168.45L71.5 168.01L71.63 167.57L71.76 167.13L71.9 166.69L72.05 166.26L72.21 165.84L72.38 165.41L72.55 164.99L72.74 164.58L72.93 164.17L73.13 163.76L73.33 163.35L73.55 162.96L73.77 162.56L74 162.17L74.24 161.79L74.49 161.41L74.75 161.03L75.01 160.66L75.28 160.29L75.56 159.93L75.84 159.58L76.14 159.23L76.44 158.88L76.75 158.54L77.06 158.21L77.39 157.88L77.72 157.56L78.05 157.24L78.4 156.93L78.75 156.63L79.11 156.33L79.47 156.04L79.85 155.75L80.23 155.47L80.23 155.46L80.24 155.46L80.25 155.45L80.26 155.45L80.26 155.44L80.27 155.44L80.28 155.44L80.29 155.43L80.29 155.43L80.3 155.42L80.31 155.42L80.31 155.42L80.32 155.42L80.32 155.42L80.33 155.42L80.33 155.42L80.34 155.42L80.57 155.25L80.81 155.09L81.05 154.93L81.29 154.78L81.53 154.63L81.78 154.49L82.02 154.35L82.27 154.21L82.53 154.08L82.78 153.95L83.03 153.82L83.29 153.7L83.55 153.59L83.81 153.48L84.08 153.37L84.34 153.26L84.61 153.16L84.88 153.07L85.15 152.98L85.42 152.89L85.7 152.81L85.97 152.73L86.25 152.65L86.53 152.58L86.81 152.52L87.09 152.46L87.37 152.4L87.66 152.34L87.94 152.29L88.23 152.25L88.52 152.21L88.81 152.17L89.1 152.14L89.39 152.11L89.68 152.09L89.98 152.07L90.27 152.05L90.57 152.04L90.87 152.04L91.17 152.03L91.46 152.04L91.75 152.04L92.05 152.06L92.35 152.07L92.65 152.1L92.95 152.12L93.26 152.15L93.56 152.19L93.87 152.23L94.18 152.28L94.49 152.33L94.8 152.38L95.12 152.44L95.43 152.51L95.75 152.58L96.07 152.66L96.4 152.74L96.72 152.82L97.05 152.91L97.38 153.01L97.71 153.11L98.04 153.21L98.38 153.32L98.71 153.44L99.05 153.56L99.4 153.68L99.74 153.81L100.08 153.94L100.43 154.08L100.78 154.23L101.13 154.38L101.49 154.53L101.85 154.69L102.21 154.86L102.57 155.03L102.93 155.2L103.3 155.38L103.66 155.56L104.03 155.75L104.41 155.95L104.44 152.88L104.44 107.78L104.45 107.29L104.46 106.8L104.48 106.31L104.51 105.83L104.54 105.35L104.58 104.87L104.63 104.39L104.69 103.92L104.75 103.45L104.82 102.98L104.9 102.51L104.99 102.05L105.08 101.59L105.18 101.14L105.29 100.69L105.4 100.24L105.53 99.79L105.65 99.35L105.79 98.91L105.94 98.48L106.09 98.04L106.24 97.62L106.41 97.19L106.58 96.77L106.76 96.35L106.95 95.94L107.14 95.53L107.34 95.13L107.55 94.73L107.76 94.33L107.98 93.94L108.21 93.55L108.44 93.16L108.68 92.78L108.93 92.41L109.19 92.04L109.45 91.67L109.72 91.31L109.99 90.95L110.27 90.6L110.43 90.4L110.6 90.21L110.76 90.01L110.93 89.82L111.1 89.63L111.27 89.45L111.44 89.27L111.62 89.08L111.79 88.9L111.97 88.73L112.15 88.55L112.33 88.38L112.51 88.21L112.7 88.04L112.88 87.88L113.07 87.71L113.26 87.55L113.45 87.39L113.64 87.23L113.84 87.08L114.03 86.93L114.23 86.78L114.43 86.63L114.63 86.48L114.83 86.34L115.03 86.2L115.23 86.06L115.44 85.92L115.64 85.79L115.85 85.66L116.06 85.53L116.27 85.4L116.48 85.28L116.69 85.15L116.91 85.03L117.12 84.92L117.34 84.8L117.56 84.69L117.78 84.58L118 84.47L118.22 84.36L118.44 84.26L118.66 84.16L118.88 84.06L119.1 83.96L119.33 83.87L119.55 83.78L119.78 83.69L120 83.61L120.23 83.53L120.46 83.45L120.69 83.37L120.92 83.29L121.15 83.22L121.38 83.15L121.61 83.09L121.85 83.02L122.08 82.96L122.31 82.9L122.55 82.85L122.78 82.79L123.02 82.74L123.26 82.69L123.5 82.65L123.73 82.61L123.97 82.57L124.21 82.53L124.45 82.5L124.69 82.46L124.94 82.43L125.18 82.41L125.42 82.39L125.66 82.36L125.9 82.35L126.15 82.33L126.39 82.32L126.64 82.31L126.88 82.3L127.13 82.3L127.37 82.3L128.2 82.31L129.03 82.36ZM126.85 98.1L126.58 98.13L126.32 98.18L126.06 98.24L125.8 98.31L125.55 98.39L125.29 98.48L125.04 98.59L124.79 98.71L124.54 98.85L124.29 98.99L124.05 99.15L123.82 99.32L123.58 99.5L123.36 99.69L123.13 99.9L122.92 100.12L122.71 100.35L122.5 100.59L122.3 100.84L122.11 101.1L121.93 101.38L121.75 101.67L121.58 101.97L121.42 102.28L121.27 102.6L121.13 102.93L121 103.27L120.87 103.63L120.76 104L120.66 104.37L120.56 104.76L120.48 105.16L120.41 105.57L120.36 105.99L120.31 106.42L120.28 106.86L120.26 107.31L120.25 107.78L120.25 198.68L120.17 198.64L120.17 198.68L117.42 197.06L111.84 193.87L111.84 180.57L111.58 180.35L111.33 180.13L111.07 179.91L110.81 179.69L110.54 179.47L110.28 179.25L110.01 179.03L109.74 178.81L109.47 178.58L109.2 178.36L108.92 178.14L108.65 177.91L108.37 177.69L108.1 177.47L107.82 177.25L107.54 177.02L107.26 176.8L106.97 176.58L106.69 176.36L106.41 176.14L106.12 175.92L105.84 175.7L105.55 175.48L105.27 175.26L104.98 175.05L104.69 174.83L104.41 174.62L104.12 174.41L103.83 174.2L103.55 173.99L103.26 173.78L102.97 173.58L102.69 173.38L102.4 173.18L102.12 172.98L101.83 172.78L101.55 172.59L101.27 172.39L100.99 172.21L100.71 172.02L100.43 171.84L100.15 171.66L99.87 171.48L99.59 171.31L99.32 171.13L99.05 170.97L98.77 170.8L98.5 170.64L98.23 170.48L97.97 170.33L97.7 170.18L97.44 170.03L97.18 169.89L96.92 169.75L96.66 169.61L96.41 169.48L96.15 169.35L95.9 169.23L95.66 169.11L95.41 169L95.17 168.89L94.93 168.78L94.69 168.68L94.46 168.59L94.23 168.5L94 168.41L93.77 168.33L93.55 168.26L93.33 168.19L93.12 168.13L92.91 168.07L92.7 168.02L92.49 167.97L92.29 167.93L92.09 167.89L91.9 167.86L91.71 167.84L91.53 167.83L91.34 167.82L91.17 167.81L91.12 167.81L91.06 167.81L91.01 167.82L90.96 167.82L90.91 167.82L90.87 167.82L90.82 167.83L90.77 167.83L90.72 167.84L90.67 167.84L90.62 167.85L90.58 167.86L90.53 167.86L90.49 167.87L90.44 167.88L90.4 167.89L90.35 167.9L90.31 167.91L90.26 167.92L90.22 167.93L90.18 167.95L90.13 167.96L90.09 167.97L90.05 167.99L90.01 168L89.97 168.01L89.93 168.03L89.89 168.05L89.85 168.06L89.81 168.08L89.77 168.1L89.73 168.12L89.69 168.13L89.65 168.15L89.62 168.17L89.58 168.19L89.54 168.21L89.51 168.24L89.47 168.26L89.44 168.28L89.17 168.48L88.91 168.7L88.65 168.93L88.41 169.16L88.18 169.42L87.96 169.68L87.75 169.95L87.56 170.24L87.38 170.54L87.21 170.85L87.06 171.18L86.93 171.52L86.81 171.87L86.71 172.24L86.62 172.62L86.56 173.01L86.51 173.42L86.49 173.84L86.48 174.28L86.5 174.73L86.54 175.2L86.6 175.68L86.68 176.18L86.79 176.69L86.93 177.21L87.09 177.76L87.27 178.31L87.48 178.89L87.73 179.48L87.99 180.08L88.29 180.71L88.62 181.35L88.98 182L89.37 182.68L89.79 183.37L90.25 184.07L90.73 184.8L91.26 185.54L91.81 186.3L92.41 187.08L92.95 187.74L98.12 193.85L98.97 194.86L99.81 195.89L100.64 196.92L101.46 197.96L102.26 199.01L103.05 200.07L103.84 201.13L104.61 202.21L105.37 203.29L106.11 204.38L106.85 205.47L107.57 206.58L108.29 207.69L108.99 208.81L109.68 209.93L110.35 211.07L111.02 212.21L111.67 213.35L112.31 214.5L112.94 215.66L113.56 216.83L114.16 218L114.76 219.18L115.34 220.37L115.91 221.56L116.46 222.75L117 223.96L117.54 225.17L118.05 226.38L118.56 227.6L119.05 228.82L119.53 230.06L120 231.29L120.46 232.53L120.9 233.78L121.33 235.03L121.75 236.29L122.15 237.55L122.54 238.81L122.92 240.08L123.6 242.44L174.6 242.44L175.21 241.95L175.81 241.46L176.4 240.96L176.99 240.47L177.56 239.97L178.13 239.47L178.69 238.97L179.23 238.47L179.77 237.97L180.29 237.46L180.81 236.95L181.31 236.44L181.81 235.92L182.29 235.39L182.77 234.87L183.23 234.34L183.68 233.8L184.12 233.25L184.55 232.7L184.97 232.15L185.37 231.58L185.77 231.01L186.15 230.43L186.52 229.85L186.88 229.25L187.23 228.64L187.56 228.03L187.88 227.41L188.19 226.77L188.48 226.13L188.77 225.47L189.04 224.81L189.29 224.13L189.54 223.44L189.77 222.74L189.98 222.02L190.18 221.29L190.37 220.55L190.54 219.79L190.7 219.02L190.85 218.27L190.99 217.51L191.12 216.74L191.24 215.95L191.36 215.16L191.47 214.35L191.57 213.54L191.67 212.72L191.76 211.9L191.85 211.06L191.93 210.23L192 209.39L192.07 208.54L192.14 207.7L192.2 206.85L192.26 206L192.31 205.15L192.35 204.3L192.4 203.46L192.44 202.61L192.47 201.77L192.5 200.94L192.53 200.11L192.56 199.28L192.58 198.46L192.6 197.65L192.61 196.85L192.63 196.05L192.64 195.27L192.65 194.49L192.66 193.73L192.67 192.98L192.67 192.24L192.68 191.52L192.68 190.81L192.68 190.12L192.68 189.44L192.68 188.79L192.68 188.14L192.68 187.52L192.68 161.3L192.68 161.04L192.66 160.79L192.64 160.54L192.61 160.29L192.57 160.04L192.52 159.79L192.47 159.55L192.4 159.31L192.33 159.07L192.25 158.83L192.16 158.6L192.07 158.37L191.97 158.15L191.86 157.92L191.74 157.71L191.62 157.5L191.48 157.29L191.35 157.08L191.2 156.89L191.05 156.69L190.89 156.51L190.73 156.33L190.56 156.15L190.39 155.98L190.2 155.82L190.02 155.66L189.82 155.52L189.63 155.37L189.42 155.24L189.22 155.11L189 154.99L188.78 154.88L188.56 154.78L188.33 154.69L188.1 154.6L187.87 154.53L187.63 154.46L187.38 154.4L187.13 154.35L186.88 154.32L186.86 154.31L186.84 154.31L186.81 154.3L186.79 154.3L186.77 154.3L186.74 154.29L186.72 154.29L186.7 154.29L186.68 154.29L186.65 154.28L186.63 154.28L186.6 154.28L186.58 154.28L186.56 154.28L186.53 154.27L186.51 154.27L186.49 154.27L186.46 154.27L186.44 154.27L186.42 154.27L186.39 154.27L186.37 154.27L186.35 154.27L186.32 154.26L186.3 154.26L186.27 154.26L186.25 154.26L186.23 154.26L186.2 154.26L186.18 154.26L186.16 154.26L186.13 154.26L186.11 154.26L186.09 154.26L186.04 154.26L186.02 154.26L185.95 154.26L185.78 154.26L185.62 154.27L185.45 154.28L185.29 154.29L185.13 154.31L184.96 154.33L184.8 154.36L184.64 154.39L184.49 154.42L184.33 154.46L184.17 154.5L184.02 154.54L183.87 154.59L183.72 154.64L183.57 154.7L183.42 154.76L183.27 154.82L183.13 154.88L182.99 154.95L182.85 155.02L182.71 155.1L182.57 155.18L182.44 155.26L182.3 155.34L182.17 155.43L182.04 155.52L181.92 155.61L181.79 155.71L181.67 155.81L181.55 155.91L181.44 156.01L181.32 156.12L181.21 156.23L181.1 156.34L181 156.46L180.89 156.57L180.79 156.69L180.69 156.81L180.6 156.94L180.51 157.07L180.45 157.14L180.4 157.21L180.35 157.28L180.31 157.35L180.26 157.43L180.21 157.5L180.17 157.58L180.12 157.65L180.08 157.73L180.04 157.81L180 157.88L179.96 157.96L179.92 158.04L179.88 158.12L179.84 158.2L179.81 158.28L179.77 158.37L179.74 158.45L179.71 158.53L179.67 158.61L179.64 158.7L179.61 158.78L179.59 158.87L179.56 158.96L179.53 159.04L179.51 159.13L179.49 159.22L179.46 159.3L179.44 159.39L179.42 159.48L179.4 159.57L179.39 159.66L179.37 159.75L179.36 159.84L179.34 159.93L179.33 160.02L179.32 160.12L179.31 160.21L179.3 160.3L179.3 160.39L179.29 160.41L179.29 160.45L179.29 160.5L179.28 160.57L179.28 160.65L179.28 160.74L179.28 160.84L179.28 160.95L179.27 161.08L179.27 161.21L179.27 161.35L179.27 161.49L179.27 161.64L179.27 161.8L179.27 161.96L179.27 162.13L179.27 162.3L179.27 162.47L179.27 162.64L179.28 162.81L179.28 162.99L179.28 163.16L179.28 163.33L179.28 163.49L179.28 163.65L179.28 163.81L179.28 163.97L179.29 164.11L179.29 164.25L179.29 164.38L179.29 164.51L179.29 164.62L179.29 164.72L179.29 164.82L179.29 164.9L179.29 164.96L179.3 165.02L179.3 165.09L179.22 165.09L179.22 165.09L179.16 165.09L174.51 165.09L174.51 154.78L174.51 154.75L174.51 154.73L174.51 154.72L174.51 154.7L174.51 154.68L174.51 154.68L174.51 154.67L174.51 154.66L174.51 154.65L174.51 154.64L174.51 154.63L174.5 154.62L174.5 154.61L174.5 154.6L174.5 154.59L174.5 154.57L174.49 154.56L174.49 154.55L174.49 154.54L174.49 154.54L174.49 154.48L174.48 154.43L174.48 154.38L174.48 154.32L174.48 154.27L174.48 154.22L174.47 154.17L174.47 154.11L174.47 154.06L174.46 154.01L174.46 153.96L174.45 153.91L174.44 153.86L174.44 153.8L174.43 153.75L174.42 153.7L174.42 153.65L174.41 153.6L174.4 153.55L174.39 153.5L174.38 153.45L174.37 153.4L174.36 153.35L174.35 153.3L174.34 153.25L174.33 153.2L174.31 153.16L174.3 153.11L174.29 153.06L174.28 153.01L174.26 152.96L174.25 152.91L174.24 152.86L174.22 152.82L174.21 152.77L174.19 152.72L174.18 152.67L174.16 152.63L174.14 152.58L174.13 152.53L174.06 152.34L173.98 152.15L173.9 151.96L173.81 151.78L173.72 151.6L173.62 151.42L173.51 151.25L173.4 151.07L173.29 150.91L173.17 150.74L173.04 150.58L172.91 150.43L172.78 150.28L172.64 150.13L172.5 149.99L172.35 149.85L172.2 149.71L172.04 149.58L171.88 149.46L171.72 149.33L171.55 149.22L171.38 149.11L171.21 149L171.03 148.9L170.85 148.8L170.66 148.71L170.48 148.63L170.28 148.55L170.09 148.48L169.9 148.41L169.7 148.35L169.5 148.29L169.29 148.24L169.09 148.2L168.88 148.16L168.67 148.13L168.45 148.11L168.24 148.09L168.02 148.08L167.81 148.08L167.42 148.08L167.24 148.08L167.05 148.09L166.87 148.1L166.69 148.12L166.51 148.14L166.33 148.17L166.16 148.2L165.98 148.23L165.81 148.27L165.64 148.32L165.47 148.37L165.3 148.42L165.13 148.48L164.97 148.54L164.81 148.61L164.65 148.68L164.49 148.75L164.34 148.83L164.19 148.91L164.04 149L163.89 149.09L163.74 149.18L163.6 149.28L163.46 149.38L163.32 149.49L163.19 149.59L163.06 149.71L162.93 149.82L162.8 149.94L162.68 150.06L162.56 150.18L162.44 150.31L162.33 150.44L162.21 150.57L162.11 150.71L162 150.85L161.9 150.99L161.8 151.13L161.71 151.28L161.62 151.43L161.58 151.5L161.54 151.58L161.49 151.66L161.45 151.73L161.42 151.81L161.38 151.89L161.34 151.96L161.3 152.04L161.27 152.12L161.24 152.2L161.2 152.28L161.17 152.36L161.14 152.44L161.11 152.52L161.08 152.61L161.05 152.69L161.03 152.77L161 152.86L160.97 152.94L160.95 153.02L160.93 153.11L160.91 153.19L160.89 153.28L160.87 153.36L160.85 153.45L160.83 153.54L160.82 153.62L160.8 153.71L160.79 153.8L160.77 153.89L160.76 153.98L160.75 154.06L160.74 154.15L160.74 154.24L160.73 154.33L160.72 154.42L160.72 154.51L160.72 154.6L160.71 154.69L160.71 154.78L160.71 161.9L155.38 161.9L155.38 150.41L155.38 150.23L155.37 150.05L155.36 149.87L155.34 149.7L155.32 149.52L155.29 149.35L155.26 149.17L155.23 149L155.19 148.83L155.15 148.66L155.1 148.49L155.05 148.33L154.99 148.16L154.93 148L154.87 147.84L154.8 147.69L154.73 147.53L154.65 147.38L154.57 147.22L154.49 147.08L154.4 146.93L154.31 146.78L154.22 146.64L154.12 146.5L154.02 146.37L153.92 146.23L153.81 146.1L153.7 145.97L153.58 145.85L153.47 145.72L153.35 145.6L153.22 145.49L153.1 145.37L152.97 145.26L152.84 145.15L152.7 145.05L152.56 144.95L152.43 144.85L152.28 144.76L152.14 144.67L152.06 144.62L151.98 144.58L151.91 144.53L151.83 144.49L151.75 144.45L151.67 144.41L151.59 144.37L151.51 144.33L151.43 144.3L151.34 144.26L151.26 144.23L151.18 144.19L151.1 144.16L151.01 144.13L150.93 144.1L150.84 144.07L150.76 144.04L150.67 144.01L150.58 143.98L150.5 143.96L150.41 143.93L150.32 143.91L150.23 143.89L150.15 143.87L150.06 143.85L149.97 143.83L149.88 143.81L149.79 143.8L149.7 143.78L149.6 143.77L149.51 143.76L149.42 143.75L149.33 143.74L149.24 143.73L149.14 143.72L149.05 143.71L148.96 143.71L148.86 143.71L148.77 143.7L148.67 143.7L148.32 143.7L148.26 143.7L148.2 143.7L148.14 143.71L148.08 143.71L148.02 143.71L147.96 143.71L147.9 143.72L147.84 143.72L147.79 143.72L147.73 143.73L147.67 143.73L147.61 143.74L147.56 143.75L147.5 143.75L147.44 143.76L147.38 143.77L147.33 143.78L147.27 143.79L147.21 143.8L147.16 143.81L147.1 143.82L147.04 143.83L146.99 143.84L146.93 143.85L146.88 143.86L146.82 143.88L146.76 143.89L146.71 143.9L146.65 143.92L146.6 143.93L146.54 143.95L146.49 143.96L146.44 143.98L146.38 143.99L146.33 144.01L146.27 144.03L146.22 144.04L146.17 144.06L146.11 144.08L146.06 144.1L146.05 144.1L146.05 144.1L146.04 144.11L146.04 144.11L146.03 144.11L146.02 144.12L146.02 144.12L146 144.13L146 144.13L145.98 144.14L145.97 144.15L145.95 144.16L145.94 144.16L145.93 144.17L145.92 144.18L145.92 144.18L145.91 144.18L145.9 144.18L145.74 144.25L145.59 144.32L145.44 144.39L145.29 144.46L145.15 144.53L145.01 144.61L144.87 144.7L144.73 144.78L144.59 144.87L144.46 144.96L144.33 145.06L144.2 145.16L144.07 145.26L143.95 145.36L143.82 145.47L143.7 145.58L143.59 145.69L143.47 145.81L143.36 145.93L143.26 146.05L143.15 146.17L143.05 146.3L142.95 146.42L142.85 146.55L142.76 146.69L142.67 146.82L142.58 146.96L142.5 147.1L142.42 147.24L142.34 147.39L142.27 147.53L142.2 147.68L142.13 147.83L142.07 147.98L142.01 148.13L141.96 148.29L141.91 148.45L141.86 148.61L141.81 148.77L141.77 148.93L141.77 148.96L141.76 149L141.75 149.03L141.74 149.07L141.74 149.1L141.73 149.14L141.72 149.18L141.71 149.21L141.71 149.25L141.7 149.28L141.7 149.32L141.69 149.36L141.68 149.39L141.68 149.43L141.67 149.47L141.67 149.5L141.66 149.54L141.66 149.58L141.65 149.61L141.65 149.65L141.65 149.69L141.64 149.72L141.64 149.76L141.63 149.8L141.63 149.84L141.63 149.87L141.63 149.91L141.62 149.95L141.62 149.99L141.62 150.03L141.62 150.06L141.61 150.1L141.61 150.14L141.61 150.18L141.61 150.22L141.61 150.26L141.61 150.3L141.61 150.33L141.61 150.37L141.61 150.41L141.61 159.51L133.88 159.51L133.88 154.48L133.86 154.48L133.86 107.78L133.85 107.29L133.83 106.81L133.81 106.34L133.77 105.89L133.71 105.45L133.65 105.03L133.58 104.61L133.5 104.21L133.41 103.83L133.31 103.46L133.2 103.1L133.08 102.75L132.95 102.41L132.82 102.09L132.68 101.78L132.52 101.49L132.37 101.21L132.2 100.94L132.03 100.68L131.85 100.43L131.67 100.2L131.48 99.98L131.28 99.77L131.08 99.57L130.87 99.39L130.66 99.22L130.45 99.06L130.23 98.91L130 98.78L129.78 98.66L129.55 98.54L129.31 98.45L129.08 98.36L128.84 98.28L128.6 98.22L128.35 98.17L128.11 98.13L127.86 98.1L127.62 98.08L127.37 98.07L127.11 98.08L126.85 98.1Z"
       id="d1kO1miTR9" />
  </defs>
  <g
     id="g93">
    <g
       id="g75">
      <use
         xlink:href="#caMZkgzks"
         opacity="1"
         fill="#00c441"
         fill-opacity="1"
         id="use69" />
      <g
         id="g73">
        <use
           xlink:href="#caMZkgzks"
           opacity="1"
           fill-opacity="0"
           stroke="#000000"
           stroke-width="1"
           stroke-opacity="0"
           id="use71" />
      </g>
    </g>
    <g
       id="g83">
      <use
         xlink:href="#aDuhOPMBd"
         opacity="1"
         fill="#00c441"
         fill-opacity="1"
         id="use77" />
      <g
         id="g81">
        <use
           xlink:href="#aDuhOPMBd"
           opacity="1"
           fill-opacity="0"
           stroke="#000000"
           stroke-width="1"
           stroke-opacity="0"
           id="use79" />
      </g>
    </g>
    <g
       id="g91">
      <use
         xlink:href="#d1kO1miTR9"
         opacity="1"
         fill="#a07b49"
         fill-opacity="1"
         id="use85" />
      <g
         id="g89">
        <use
           xlink:href="#d1kO1miTR9"
           opacity="1"
           fill-opacity="0"
           stroke="#000000"
           stroke-width="1"
           stroke-opacity="0"
           id="use87" />
      </g>
    </g>
  </g>
</svg>
