<?xml version="1.0" encoding="UTF-8" standalone="no"?>
<!DOCTYPE svg PUBLIC "-//W3C//DTD SVG 1.1//EN" "http://www.w3.org/Graphics/SVG/1.1/DTD/svg11.dtd">
<svg version="1.1" xmlns="http://www.w3.org/2000/svg" xmlns:xlink="http://www.w3.org/1999/xlink" preserveAspectRatio="xMidYMid meet" viewBox="79 39 324 404" width="320" height="400"><defs><path d="M140 140C140 142.67 140 156 140 180L180 180C180 156 180 142.67 180 140C180 106.99 206.99 80 240 80C273.01 80 300 106.99 300 140C304 140 336 140 340 140C340 85 295 40 240 40C185 40 140 85 140 140Z" id="brOb0aYqJ"></path><path d="M120 440C98.01 440 80 421.99 80 400C80 382 80 238 80 220C80 198.01 98.01 180 120 180C144 180 336 180 360 180C381.99 180 400 198.01 400 220C400 238 400 382 400 400C400 421.99 381.99 440 360 440C312 440 144 440 120 440Z" id="i46Z3rbtKi"></path><path d="M240 340C223.44 340 210 326.56 210 310C210 293.44 223.44 280 240 280C256.56 280 270 293.44 270 310C270 326.56 256.56 340 240 340Z" id="e2EX5Q57H"></path></defs><g><g><use xlink:href="#brOb0aYqJ" opacity="1" fill="#424242" fill-opacity="1"></use><g><use xlink:href="#brOb0aYqJ" opacity="1" fill-opacity="0" stroke="#000000" stroke-width="1" stroke-opacity="0"></use></g></g><g><use xlink:href="#i46Z3rbtKi" opacity="1" fill="#2de03b" fill-opacity="1"></use><g><use xlink:href="#i46Z3rbtKi" opacity="1" fill-opacity="0" stroke="#000000" stroke-width="1" stroke-opacity="0"></use></g></g><g><use xlink:href="#e2EX5Q57H" opacity="1" fill="#1c7a23" fill-opacity="1"></use><g><use xlink:href="#e2EX5Q57H" opacity="1" fill-opacity="0" stroke="#000000" stroke-width="1" stroke-opacity="0"></use></g></g></g></svg>